<?xml version="1.0" encoding="utf-8"?>
<!-- Generator: Adobe Illustrator 22.0.1, SVG Export Plug-In . SVG Version: 6.00 Build 0)  -->
<svg version="1.1" id="Laag_1" xmlns="http://www.w3.org/2000/svg" xmlns:xlink="http://www.w3.org/1999/xlink" x="0px" y="0px"
	 viewBox="0 0 200 61.6" style="enable-background:new 0 0 200 61.6;" xml:space="preserve">
<style type="text/css">
	.st0{fill:#0F8EC4;}
	.st1{fill:#303E4D;}
</style>
<polygon class="st0" points="124.7,41.1 132.9,14.8 130.9,14 122.7,41.1 "/>
<polygon class="st1" points="132.9,41.1 139.5,25.1 137.9,24.2 130.9,41.1 "/>
<path class="st1" d="M117.3,41.1l6.2-35.3l-2.1-0.4l-6.2,35.7h0.4C116.1,41.1,116.5,41.1,117.3,41.1z"/>
<path class="st0" d="M140.3,42.3l0.8,0.4l4.5-8.2l-1.6-0.8l-4.5,8.2C139.5,41.9,139.9,41.9,140.3,42.3z"/>
<path class="st0" d="M109.1,37.4C109.1,37.4,109.5,37.4,109.1,37.4l3.3-27.1l-2.1-0.4l-2.9,25.9C108.3,36.6,108.7,37,109.1,37.4z"/>
<path class="st1" d="M101.7,34.9L100.1,0H98l1.6,34.9C100.1,34.9,100.9,34.9,101.7,34.9z"/>
<path class="st0" d="M93.1,41.5L91,18.9H89L91,40.7C91.9,41.1,92.7,41.1,93.1,41.5z"/>
<polygon class="st1" points="85.3,41.1 79.1,9.9 77.1,10.3 83.2,41.1 "/>
<polygon class="st0" points="75.4,34.1 69.3,15.2 67.6,16 73,34.1 "/>
<path class="st1" d="M68.9,41.9v-2.1l-6.6-13.6l-1.6,0.8l7,14C68,41.5,68.4,41.5,68.9,41.9z"/>
<path class="st1" d="M0.9,39.5c1.2-0.3,2.7-0.4,4.3-0.4c2.5,0,4.4,0.4,5.8,1.6c1.3,1.1,1.8,2.9,1.8,4.6c0,2.3-0.7,3.9-1.8,5.1
	c-1.3,1.4-3.5,2-5.2,2c-0.3,0-0.6,0-0.8,0v7.9H0.9V39.5z M5.1,49.1c0.2,0,0.4,0,0.7,0c2.1,0,3-1.5,3-3.5c0-1.8-0.8-3.3-2.7-3.3
	c-0.4,0-0.8,0.1-1,0.2V49.1z"/>
<path class="st1" d="M25.5,52.6c0,6.4-3.6,8-5.9,8c-3.7,0-5.9-2.9-5.9-7.9c0-5.5,2.9-8,6-8C23.3,44.7,25.5,47.8,25.5,52.6z
	 M17.9,52.7c0,2.6,0.4,4.9,1.9,4.9c1.3,0,1.7-2.6,1.7-4.9c0-2.1-0.3-4.8-1.7-4.8C18.2,47.9,17.9,50.5,17.9,52.7z"/>
<path class="st1" d="M27.9,38.6H32v21.8h-4.1C27.9,60.4,27.9,38.6,27.9,38.6z"/>
<path class="st1" d="M39.1,40.9c0,1.3-0.9,2.2-2.2,2.2c-1.1,0-2.1-0.9-2-2.2c0-1.4,1-2.3,2.1-2.3C38.2,38.6,39.1,39.5,39.1,40.9z
	 M34.9,60.4V45h4.1v15.4H34.9z"/>
<path class="st1" d="M46.8,40.8V45h3v2.9h-3v7c0,1.8,0.7,2.2,1.6,2.2c0.4,0,0.7,0,1.1-0.1l0,3.2c-0.6,0.2-1.4,0.3-2.5,0.3
	c-1.2,0-2.2-0.3-3-1c-0.8-0.8-1.3-2-1.3-4.4v-7.3h-1.8V45h1.8v-3.2L46.8,40.8z"/>
<path class="st1" d="M55.9,40.9c0,1.3-0.9,2.2-2.2,2.2c-1.1,0-2.1-0.9-2-2.2c0-1.4,1-2.3,2.1-2.3C55,38.6,55.9,39.5,55.9,40.9z
	 M51.8,60.4V45h4.1v15.4H51.8z"/>
<path class="st1" d="M62.2,54.1c0,2.4,1.4,3.3,3.3,3.3c1.2,0,2.2-0.3,2.9-0.5l0.5,3c-1,0.4-2.7,0.7-4.2,0.7c-4.2,0-6.5-2.8-6.5-7.6
	c0-5.2,2.7-8.3,6.2-8.3c3.3,0,5.3,2.6,5.3,7.3c0,1.1-0.1,1.7-0.1,2.1L62.2,54.1L62.2,54.1z M65.9,51.3c0-2-0.5-3.5-1.7-3.5
	c-1.3,0-1.9,2-1.9,3.5H65.9z"/>
<path class="st1" d="M76.1,51.7L76.1,51.7c0.3-0.9,0.6-1.5,0.8-2.1l2-4.6h4.5l-3.7,6.5l3.9,9H79l-2.2-6.3l-0.7,1.3v5H72V38.6h4.1
	L76.1,51.7L76.1,51.7z"/>
<path class="st1" d="M88.1,54.1c0.1,2.4,1.4,3.3,3.3,3.3c1.2,0,2.2-0.3,2.9-0.5l0.5,3c-1,0.4-2.7,0.7-4.2,0.7
	c-4.2,0-6.5-2.8-6.5-7.6c0-5.2,2.7-8.3,6.2-8.3c3.3,0,5.3,2.6,5.3,7.3c0,1.1-0.1,1.7-0.1,2.1L88.1,54.1L88.1,54.1z M91.8,51.3
	c0-2-0.5-3.5-1.7-3.5c-1.3,0-1.9,2-1.9,3.5H91.8z"/>
<path class="st0" d="M98.3,39.5c1-0.3,2.2-0.4,3.5-0.4c1.9,0,3.6,0.4,4.7,1.5c0.9,0.9,1.4,2.1,1.4,3.6c0,2.2-1.2,3.9-3.3,4.7V49
	c2.5,0.7,3.9,2.6,3.9,5.4c0,1.7-0.6,3.2-1.5,4.2c-1.2,1.4-3.2,1.9-5.6,1.9c-1.6,0-2.5-0.1-3.2-0.2V39.5z M100.7,48.2h1.1
	c2,0,3.7-1.5,3.7-3.7c0-2-0.9-3.5-3.5-3.5c-0.6,0-1,0.1-1.3,0.1V48.2z M100.7,58.5c0.3,0.1,0.7,0.1,1.2,0.1c2.5,0,4.1-1.5,4.1-4.2
	c0-2.9-2-4.3-4.3-4.3h-1.1V58.5z"/>
<path class="st0" d="M117.4,60.4l-0.2-1.6h-0.1c-0.7,1.2-1.7,1.9-3.1,1.9c-2,0-3.6-1.7-3.6-4.4c0-3.8,3.1-5.5,6.5-5.5v-0.5
	c0-2.1-0.5-3.5-2.4-3.5c-0.9,0-1.8,0.3-2.5,0.8l-0.5-1.7c0.6-0.5,2-1,3.6-1c3.1,0,4.4,2,4.4,5.4v6.6c0,1.2,0,2.5,0.2,3.4
	C119.6,60.4,117.4,60.4,117.4,60.4z M117.1,52.5c-1.2,0-4.2,0.2-4.2,3.6c0,2,1,2.7,1.9,2.7c1.1,0,2-0.8,2.2-2.3
	c0.1-0.3,0.1-0.6,0.1-0.9V52.5z"/>
<path class="st0" d="M122.8,49.1c0-1.3-0.1-2.8-0.1-3.9h2.2l0.1,2.4h0.1c0.5-1.4,1.8-2.6,3.2-2.6c0.2,0,0.4,0,0.5,0v2.5
	c-0.1,0-0.3,0-0.5,0c-1.5,0-2.7,1.4-2.9,3.2c-0.1,0.4-0.1,0.9-0.1,1.4v8.4h-2.4C122.8,60.4,122.8,49.1,122.8,49.1z"/>
<path class="st0" d="M139.6,52.8c0,5.9-2.7,7.9-5.1,7.9c-2.7,0-5-2.5-5-7.8c0-5.6,2.5-7.9,5.1-7.9C137.4,44.9,139.6,47.5,139.6,52.8
	z M132,52.8c0,2.5,0.5,5.9,2.6,5.9c2.1,0,2.5-3.6,2.5-5.9c0-2.3-0.4-5.9-2.6-5.9C132.4,46.8,132,50.4,132,52.8z"/>
<path class="st0" d="M142.3,49.1c0-1.8-0.1-2.7-0.1-3.9h2.1l0.1,1.9h0.1c0.7-1.2,1.8-2.1,3.4-2.1c1.4,0,2.6,0.7,3.2,2.3h0.1
	c0.4-0.8,0.9-1.4,1.5-1.7c0.6-0.4,1.3-0.6,2.1-0.6c2.1,0,3.7,1.5,3.7,5.4v10.1H156v-9.5c0-2-0.3-3.9-2.1-3.9c-1,0-1.9,0.9-2.2,2.3
	c-0.1,0.4-0.1,0.9-0.1,1.4v9.8h-2.4v-10c0-1.7-0.3-3.5-2.1-3.5c-1,0-2,0.9-2.3,2.5c-0.1,0.4-0.1,0.8-0.1,1.3v9.7h-2.4L142.3,49.1
	L142.3,49.1z"/>
<path class="st0" d="M163.5,53c0,4.7,1.9,5.7,3.6,5.7c1.1,0,1.9-0.3,2.5-0.6l0.4,1.8c-0.8,0.5-2.1,0.7-3.4,0.7c-3.6,0-5.5-3-5.5-7.6
	c0-4.9,2.1-8,5.1-8c3.1,0,4.4,3.3,4.4,6.7c0,0.6,0,1,0,1.4L163.5,53L163.5,53z M168.3,51.2c0-3.1-1.1-4.4-2.3-4.4
	c-1.6,0-2.4,2.3-2.5,4.4H168.3z"/>
<path class="st0" d="M176.2,41.1v4.1h2.9V47h-2.9v9.1c0,2,0.7,2.5,1.6,2.5c0.4,0,0.7,0,1-0.1l0.1,1.9c-0.4,0.2-1,0.2-1.8,0.2
	c-1,0-1.8-0.3-2.4-0.9c-0.6-0.7-0.9-1.7-0.9-3.8V47h-1.9v-1.8h1.9v-3.4L176.2,41.1z"/>
<path class="st0" d="M182.7,53c0,4.7,1.9,5.7,3.6,5.7c1.1,0,1.9-0.3,2.5-0.6l0.4,1.8c-0.8,0.5-2.1,0.7-3.4,0.7c-3.6,0-5.5-3-5.5-7.6
	c0-4.9,2.1-8,5.1-8c3.1,0,4.4,3.3,4.4,6.7c0,0.6,0,1,0,1.4L182.7,53L182.7,53z M187.5,51.2c0-3.1-1.1-4.4-2.3-4.4
	c-1.6,0-2.4,2.3-2.5,4.4H187.5z"/>
<path class="st0" d="M192.4,49.1c0-1.3-0.1-2.8-0.1-3.9h2.2l0.1,2.4h0.1c0.5-1.4,1.8-2.6,3.2-2.6c0.2,0,0.4,0,0.5,0v2.5
	c-0.1,0-0.3,0-0.5,0c-1.5,0-2.7,1.4-2.9,3.2c-0.1,0.4-0.1,0.9-0.1,1.4v8.4h-2.4L192.4,49.1L192.4,49.1z"/>
</svg>
