<?xml version="1.0" encoding="utf-8"?>
<!-- Generator: Adobe Illustrator 22.0.1, SVG Export Plug-In . SVG Version: 6.00 Build 0)  -->
<svg version="1.1" id="Laag_1" xmlns="http://www.w3.org/2000/svg" xmlns:xlink="http://www.w3.org/1999/xlink" x="0px" y="0px"
	 viewBox="0 0 200 61.62" style="enable-background:new 0 0 200 61.62;" xml:space="preserve">
<style type="text/css">
	.st0{fill:#FFFFFF;}
</style>
<polygon class="st0" points="124.728,41.08 132.944,14.789 130.89,13.967 122.674,41.08 "/>
<polygon class="st0" points="132.944,41.08 139.516,25.059 137.873,24.237 130.89,41.08 "/>
<path class="st0" d="M117.333,41.08l6.162-35.329l-2.054-0.411l-6.162,35.739h0.411C116.101,41.08,116.512,41.08,117.333,41.08z"/>
<path class="st0" d="M140.338,42.312l0.822,0.411l4.519-8.216l-1.643-0.822l-4.519,8.216
	C139.516,41.901,139.927,41.901,140.338,42.312z"/>
<path class="st0" d="M109.117,37.383C109.117,37.383,109.528,37.383,109.117,37.383l3.286-27.113l-2.054-0.411l-2.876,25.88
	C108.296,36.561,108.707,36.972,109.117,37.383z"/>
<path class="st0" d="M101.723,34.918L100.08,0h-2.054l1.643,34.918C100.08,34.918,100.901,34.918,101.723,34.918z"/>
<path class="st0" d="M93.096,41.491l-2.054-22.594h-2.054l2.054,21.772C91.864,41.08,92.685,41.08,93.096,41.491z"/>
<polygon class="st0" points="85.291,41.08 79.129,9.859 77.075,10.27 83.237,41.08 "/>
<polygon class="st0" points="75.432,34.096 69.27,15.2 67.627,16.021 72.967,34.096 "/>
<path class="st0" d="M68.859,41.901v-2.054l-6.573-13.556l-1.643,0.822l6.984,13.967C68.038,41.491,68.448,41.491,68.859,41.901z"/>
<g>
	<path class="st0" d="M0.947,39.475c1.173-0.252,2.726-0.409,4.315-0.409c2.457,0,4.384,0.361,5.77,1.636
		c1.254,1.118,1.815,2.858,1.815,4.649c0,2.303-0.694,3.927-1.796,5.108c-1.319,1.402-3.451,2.036-5.162,2.036
		c-0.28,0-0.552,0-0.831-0.013v7.904H0.947V39.475z M5.058,49.124c0.216,0.038,0.431,0.045,0.687,0.045
		c2.079,0,3.002-1.481,3.002-3.465c0-1.847-0.753-3.313-2.667-3.313c-0.388,0-0.768,0.063-1.022,0.157V49.124z"/>
	<path class="st0" d="M25.527,52.63c0,6.419-3.552,8.009-5.883,8.009c-3.682,0-5.893-2.906-5.893-7.91
		c0-5.524,2.906-8.009,5.964-8.009C23.347,44.72,25.527,47.775,25.527,52.63z M17.851,52.654c0,2.631,0.422,4.851,1.894,4.851
		c1.334,0,1.682-2.593,1.682-4.851c0-2.134-0.348-4.801-1.745-4.801C18.174,47.854,17.851,50.521,17.851,52.654z"/>
	<path class="st0" d="M27.868,38.593h4.136v21.794h-4.136V38.593z"/>
	<path class="st0" d="M39.079,40.899c0.025,1.32-0.918,2.232-2.164,2.232c-1.138,0-2.069-0.912-2.044-2.232
		c-0.025-1.389,0.956-2.259,2.101-2.259C38.161,38.641,39.079,39.511,39.079,40.899z M34.944,60.387V44.972h4.136v15.415H34.944z"/>
	<path class="st0" d="M46.828,40.822v4.149h3.015V47.9h-3.015v7.045c0,1.787,0.742,2.229,1.556,2.229
		c0.403,0,0.718-0.031,1.087-0.094l0.033,3.225c-0.57,0.157-1.444,0.271-2.521,0.271c-1.191,0-2.239-0.277-2.984-0.981
		c-0.845-0.804-1.307-1.99-1.307-4.408V47.9h-1.815v-2.929h1.815v-3.167L46.828,40.822z"/>
	<path class="st0" d="M55.899,40.899c0.025,1.32-0.918,2.232-2.164,2.232c-1.138,0-2.069-0.912-2.044-2.232
		c-0.025-1.389,0.956-2.259,2.101-2.259C54.981,38.641,55.899,39.511,55.899,40.899z M51.764,60.387V44.972H55.9v15.415H51.764z"/>
	<path class="st0" d="M62.235,54.148c0.049,2.403,1.439,3.293,3.264,3.293c1.175,0,2.186-0.252,2.938-0.523l0.539,2.951
		c-1.047,0.43-2.671,0.707-4.225,0.707c-4.201,0-6.509-2.771-6.509-7.586c0-5.185,2.701-8.271,6.167-8.271
		c3.315,0,5.251,2.616,5.251,7.28c0,1.104-0.05,1.71-0.125,2.148H62.235z M65.901,51.258c0.014-1.978-0.511-3.528-1.738-3.528
		c-1.342,0-1.889,1.973-1.922,3.528H65.901z"/>
	<path class="st0" d="M76.092,51.725h0.063c0.283-0.888,0.517-1.522,0.776-2.144l1.989-4.609h4.46l-3.742,6.461l3.941,8.954h-4.598
		l-2.187-6.325l-0.703,1.331v4.994H71.98V38.593h4.111V51.725z"/>
	<path class="st0" d="M88.1,54.148c0.05,2.403,1.44,3.293,3.265,3.293c1.175,0,2.186-0.252,2.938-0.523l0.539,2.951
		c-1.047,0.43-2.671,0.707-4.225,0.707c-4.201,0-6.509-2.771-6.509-7.586c0-5.185,2.701-8.271,6.167-8.271
		c3.315,0,5.251,2.616,5.251,7.28c0,1.104-0.05,1.71-0.124,2.148H88.1z M91.767,51.258c0.014-1.978-0.511-3.528-1.738-3.528
		c-1.342,0-1.889,1.973-1.922,3.528H91.767z"/>
	<path class="st0" d="M98.321,39.475c1.002-0.262,2.199-0.409,3.545-0.409c1.918,0,3.556,0.409,4.678,1.468
		c0.92,0.854,1.392,2.136,1.392,3.638c0,2.16-1.19,3.886-3.256,4.708v0.082c2.457,0.658,3.927,2.64,3.927,5.42
		c0,1.741-0.567,3.162-1.508,4.201c-1.204,1.363-3.175,1.928-5.621,1.928c-1.553,0-2.504-0.095-3.157-0.208V39.475z M100.727,48.176
		h1.118c1.974,0,3.67-1.53,3.67-3.746c0-1.959-0.903-3.47-3.494-3.47c-0.563,0-0.998,0.054-1.294,0.148V48.176z M100.727,58.47
		c0.296,0.063,0.702,0.107,1.228,0.107c2.512,0,4.146-1.467,4.146-4.216c0-2.918-2.034-4.313-4.313-4.335h-1.061V58.47z"/>
	<path class="st0" d="M117.42,60.387l-0.164-1.612h-0.085c-0.671,1.175-1.732,1.864-3.052,1.864c-2.038,0-3.613-1.717-3.613-4.356
		c0-3.805,3.053-5.486,6.504-5.518v-0.481c0-2.062-0.523-3.472-2.443-3.472c-0.936,0-1.799,0.302-2.521,0.79l-0.52-1.702
		c0.637-0.46,2.039-0.995,3.561-0.995c3.051,0,4.357,1.992,4.357,5.425v6.608c0,1.15,0.019,2.467,0.164,3.449H117.42z
		 M117.057,52.498c-1.241,0.01-4.187,0.246-4.187,3.558c0,1.983,1.008,2.686,1.874,2.686c1.054,0,1.958-0.793,2.241-2.279
		c0.063-0.289,0.072-0.598,0.072-0.872V52.498z"/>
	<path class="st0" d="M122.828,49.088c0-1.286-0.085-2.798-0.126-3.932h2.163l0.12,2.38h0.082c0.492-1.445,1.786-2.632,3.19-2.632
		c0.217,0,0.359,0.009,0.511,0.028v2.475c-0.139-0.019-0.3-0.019-0.499-0.019c-1.536,0-2.688,1.419-2.938,3.173
		c-0.06,0.402-0.088,0.869-0.088,1.386v8.439h-2.415V49.088z"/>
	<path class="st0" d="M139.561,52.752c0,5.896-2.738,7.887-5.069,7.887c-2.729,0-4.956-2.492-4.956-7.849
		c0-5.556,2.492-7.886,5.119-7.886C137.366,44.904,139.561,47.452,139.561,52.752z M131.977,52.762c0,2.523,0.454,5.941,2.632,5.941
		c2.087,0,2.512-3.561,2.512-5.941c0-2.333-0.425-5.922-2.575-5.922C132.393,46.84,131.977,50.429,131.977,52.762z"/>
	<path class="st0" d="M142.287,49.088c0-1.792-0.085-2.71-0.126-3.932h2.128l0.12,1.873h0.063c0.652-1.234,1.808-2.125,3.427-2.125
		c1.418,0,2.621,0.674,3.19,2.323h0.063c0.399-0.755,0.932-1.366,1.496-1.744c0.607-0.391,1.319-0.579,2.106-0.579
		c2.064,0,3.664,1.497,3.664,5.383v10.1h-2.406v-9.542c0-1.99-0.289-3.913-2.125-3.913c-1.017,0-1.889,0.853-2.229,2.284
		c-0.085,0.4-0.104,0.876-0.104,1.373v9.798h-2.406v-9.996c0-1.674-0.295-3.459-2.093-3.459c-1.001,0-1.98,0.855-2.264,2.477
		c-0.072,0.396-0.101,0.838-0.101,1.301v9.678h-2.406V49.088z"/>
	<path class="st0" d="M163.527,52.981c0.019,4.676,1.854,5.658,3.603,5.658c1.052,0,1.925-0.252,2.523-0.569l0.399,1.769
		c-0.848,0.476-2.148,0.737-3.364,0.737c-3.648,0-5.542-2.985-5.542-7.647c0-4.938,2.102-8.024,5.139-8.024
		c3.115,0,4.36,3.277,4.36,6.712c0,0.596-0.02,1.003-0.048,1.365H163.527z M168.315,51.197c0.044-3.054-1.11-4.405-2.261-4.405
		c-1.603,0-2.396,2.312-2.506,4.405H168.315z"/>
	<path class="st0" d="M176.217,41.1v4.057h2.923v1.838h-2.923v9.058c0,1.986,0.712,2.506,1.587,2.506
		c0.388,0,0.703-0.031,0.98-0.095l0.109,1.873c-0.432,0.158-0.999,0.24-1.799,0.24c-0.961,0-1.809-0.262-2.386-0.92
		c-0.614-0.696-0.907-1.714-0.907-3.824v-8.838h-1.861v-1.838h1.861v-3.352L176.217,41.1z"/>
	<path class="st0" d="M182.735,52.981c0.019,4.676,1.854,5.658,3.603,5.658c1.052,0,1.925-0.252,2.523-0.569l0.399,1.769
		c-0.848,0.476-2.148,0.737-3.364,0.737c-3.648,0-5.542-2.985-5.542-7.647c0-4.938,2.102-8.024,5.139-8.024
		c3.115,0,4.36,3.277,4.36,6.712c0,0.596-0.02,1.003-0.048,1.365H182.735z M187.523,51.197c0.044-3.054-1.11-4.405-2.261-4.405
		c-1.603,0-2.396,2.312-2.506,4.405H187.523z"/>
	<path class="st0" d="M192.433,49.088c0-1.286-0.085-2.798-0.126-3.932h2.163l0.12,2.38h0.082c0.491-1.445,1.785-2.632,3.189-2.632
		c0.218,0,0.359,0.009,0.511,0.028v2.475c-0.139-0.019-0.299-0.019-0.498-0.019c-1.535,0-2.688,1.419-2.938,3.173
		c-0.06,0.402-0.088,0.869-0.088,1.386v8.439h-2.416V49.088z"/>
</g>
</svg>
